<?xml version="1.0" standalone="no"?>
<!DOCTYPE svg PUBLIC "-//W3C//DTD SVG 20010904//EN"
 "http://www.w3.org/TR/2001/REC-SVG-20010904/DTD/svg10.dtd">
<svg version="1.0" xmlns="http://www.w3.org/2000/svg"
 width="1024.000000pt" height="1024.000000pt" viewBox="0 0 1024.000000 1024.000000"
 preserveAspectRatio="xMidYMid meet">

<g transform="translate(0.000000,1024.000000) scale(0.100000,-0.100000)"
fill="#000000" stroke="none">
<path d="M0 5120 l0 -5120 5120 0 5120 0 0 5120 0 5120 -5120 0 -5120 0 0
-5120z m3418 1585 c43 -9 114 -34 162 -57 68 -33 102 -58 176 -132 105 -105
161 -202 189 -332 25 -110 17 -255 -19 -349 -99 -260 -305 -428 -568 -466
-374 -54 -733 249 -755 636 -15 275 155 546 415 662 118 52 259 66 400 38z
m2492 -5 c128 -24 238 -106 290 -216 47 -97 49 -95 -94 -132 -68 -17 -128 -32
-134 -32 -5 0 -13 11 -16 24 -8 32 -52 83 -87 101 -41 22 -164 19 -216 -4 -49
-23 -63 -45 -63 -99 0 -33 6 -45 35 -71 34 -30 49 -35 300 -109 55 -16 118
-37 140 -46 154 -65 235 -180 237 -335 2 -136 -50 -242 -157 -323 -83 -62
-148 -80 -315 -85 -166 -5 -243 7 -338 56 -70 36 -99 62 -146 124 -33 45 -85
181 -73 193 4 5 130 34 240 55 14 3 22 -8 36 -49 36 -106 106 -147 251 -147
80 0 102 4 138 23 55 29 82 73 82 133 0 87 -41 116 -245 174 -296 85 -381 133
-443 250 -24 45 -27 61 -27 155 0 97 2 110 30 164 16 32 47 74 70 93 48 43
144 89 211 101 67 13 230 14 294 2z m-3721 -25 c130 -31 215 -102 246 -208 38
-128 4 -242 -101 -336 -54 -49 -57 -54 -40 -64 111 -68 165 -129 187 -210 16
-61 7 -193 -18 -248 -26 -58 -84 -123 -138 -155 -94 -55 -113 -57 -497 -61
l-358 -5 0 651 0 651 328 0 c256 0 341 -4 391 -15z m2604 0 c194 -41 299 -146
329 -330 13 -80 -2 -185 -36 -253 -29 -58 -109 -134 -170 -164 -25 -12 -46
-26 -46 -30 0 -5 37 -72 83 -151 105 -179 197 -343 197 -351 0 -3 -69 -6 -152
-6 l-153 0 -35 68 c-20 37 -76 143 -125 235 l-89 168 -105 -3 -106 -3 -3 -232
-2 -233 -135 0 -135 0 0 650 0 650 308 0 c229 0 324 -4 375 -15z m2332 6 c11
-19 455 -1274 455 -1288 0 -2 -67 -3 -149 -3 l-148 0 -43 135 -44 135 -245 -2
-245 -3 -42 -130 -41 -130 -147 -3 c-88 -1 -146 1 -146 7 0 5 14 47 31 93 17
46 111 308 209 583 98 275 188 526 201 558 l22 57 163 0 c91 0 165 -4 169 -9z
m-3595 -2116 l0 -505 265 0 265 0 0 -125 0 -125 -400 0 -400 0 0 630 0 630
135 0 135 0 0 -505z m1008 -122 l-3 -628 -132 -3 -133 -3 0 631 0 630 135 0
135 0 -2 -627z m480 582 c8 -22 78 -229 157 -460 78 -230 147 -421 152 -422 6
-2 60 144 122 324 61 180 133 389 159 463 l47 135 149 3 c139 2 148 1 141 -15
-4 -10 -67 -182 -141 -383 -73 -201 -176 -475 -227 -610 l-94 -245 -159 0
-158 0 -39 100 c-41 105 -179 476 -327 880 -48 132 -91 248 -95 258 -7 16 2
17 145 15 l153 -3 15 -40z m1882 -75 l0 -120 -270 0 -270 0 -5 -22 c-3 -13 -4
-75 -3 -138 l3 -115 238 -3 237 -2 0 -110 0 -110 -237 -2 -238 -3 0 -130 0
-130 278 -3 278 -2 -3 -123 -3 -122 -412 -3 -413 -2 0 630 0 630 410 0 410 0
0 -120z m1680 -225 c0 -222 -2 -245 -17 -245 -9 0 -53 38 -98 85 -45 47 -88
85 -94 85 -7 0 -44 -34 -84 -76 -97 -103 -201 -179 -343 -252 -210 -106 -411
-163 -626 -177 l-106 -7 -18 26 c-10 16 -13 30 -8 35 5 5 63 25 128 45 372
116 633 282 840 533 27 32 27 57 0 67 -9 3 -12 10 -9 16 3 5 0 7 -7 5 -19 -8
-65 42 -52 55 13 13 298 44 437 48 l57 2 0 -245z m-189 -112 c13 -16 12 -17
-3 -4 -10 7 -18 15 -18 17 0 8 8 3 21 -13z m195 -350 c4 -31 4 -205 0 -387 -5
-287 -8 -332 -23 -348 -14 -16 -34 -18 -170 -18 l-153 0 -10 26 c-6 15 -10
175 -10 383 0 401 -4 379 73 392 23 3 97 7 164 8 l122 1 7 -57z m-554 -169
c33 -9 38 -69 31 -317 -6 -225 -7 -239 -27 -253 -16 -11 -57 -14 -183 -14
l-163 0 0 273 0 272 26 20 c37 28 240 39 316 19z m-534 -155 c48 -16 56 -60
47 -261 l-7 -168 -179 0 -179 0 0 191 c0 198 5 223 43 239 32 13 238 12 275
-1z"/>
<path d="M3165 6446 c-148 -47 -260 -174 -283 -321 -25 -154 40 -339 147 -424
77 -62 124 -76 246 -76 99 0 116 3 168 27 152 71 261 264 241 428 -27 225
-196 381 -408 379 -39 0 -89 -6 -111 -13z"/>
<path d="M1742 6308 l3 -143 119 -3 c153 -3 220 10 262 52 42 42 52 92 30 151
-29 74 -45 80 -244 83 l-173 4 3 -144z"/>
<path d="M1742 5778 l3 -153 175 0 c192 0 218 7 264 68 27 37 29 131 3 171
-36 54 -83 66 -275 66 l-173 0 3 -152z"/>
<path d="M4385 6438 c-3 -8 -4 -91 -2 -184 l4 -169 84 -3 c46 -2 122 2 167 7
146 18 205 70 205 181 0 75 -27 120 -91 152 -42 21 -64 23 -204 26 -129 3
-159 1 -163 -10z"/>
<path d="M6946 6362 c-7 -13 -156 -463 -156 -474 0 -11 317 -11 324 0 6 10
-138 460 -152 474 -6 6 -12 6 -16 0z"/>
</g>
</svg>
